<svg width="410" height="195" xmlns="http://www.w3.org/2000/svg" enable-background="new 0 0 512 512">

 <g>
  <title>Layer 1</title>
  <g id="svg_1">
   <path id="svg_2" fill=" rgb(202, 229, 242)" d="m392.58117,19.81001c-2.73,-4.57 -7.54,-7.3 -12.87,-7.3l-277.3,0c-5.54,0 -10.6,3.03 -13.22,7.91l-74.88,139.62c-2.52,4.69 -2.39,10.22 0.35,14.79c2.73,4.57 7.54,7.3 12.87,7.3l277.3,0c5.54,0 10.6,-3.03 13.22,-7.91l74.88,-139.62c2.52,-4.69 2.39,-10.22 -0.35,-14.79z"/>
   <path id="svg_3" fill=" rgb(205, 205, 214)" d="m304.83117,189.63001l-277.3,0c-7.99,0 -15.21,-4.1 -19.31,-10.95s-4.3,-15.14 -0.52,-22.19l74.88,-139.62c3.93,-7.32 11.53,-11.87 19.83,-11.87l277.3,0c7.99,0 15.21,4.1 19.31,10.95s4.3,15.15 0.52,22.18l-74.88,139.62c-3.93,7.33 -11.53,11.88 -19.83,11.88zm-202.42,-169.62c-2.77,0 -5.3,1.52 -6.61,3.96l-74.88,139.61c-1.28,2.38 -1.21,5.07 0.17,7.39c1.39,2.33 3.73,3.66 6.44,3.66l277.3,0c2.77,0 5.3,-1.52 6.61,-3.96l74.88,-139.62c1.28,-2.38 1.21,-5.07 -0.17,-7.39l-0.01,-0.01c-1.38,-2.32 -3.73,-3.65 -6.43,-3.65l-277.3,0l0,0.01z"/>
  </g>
 </g>
</svg>